<?xml version="1.0" encoding="utf-8"?>
<!-- Generator: Adobe Illustrator 19.0.0, SVG Export Plug-In . SVG Version: 6.00 Build 0)  -->
<svg version="1.1" id="Group_2" xmlns="http://www.w3.org/2000/svg" xmlns:xlink="http://www.w3.org/1999/xlink" x="0px" y="0px"
	 viewBox="-406.4 263.6 145.9 33.4" style="enable-background:new -406.4 263.6 145.9 33.4;" xml:space="preserve">
<style type="text/css">
	.st0{fill:url(#Path_1_1_);}
	.st1{fill:#565F73;}
</style>
<linearGradient id="Path_1_1_" gradientUnits="userSpaceOnUse" x1="-799.4582" y1="553.0057" x2="-798.8222" y2="551.9286" gradientTransform="matrix(33.1656 0 0 -33.3525 26118.0684 18713.0254)">
	<stop  offset="0" style="stop-color:#17C6A0"/>
	<stop  offset="1" style="stop-color:#40D300"/>
</linearGradient>
<path id="Path_1" class="st0" d="M-379.2,290.4l-5.8-9.9l5.8-9.9c1.9,2,3.2,4.5,3.8,7.2h2.2c-1.4-9.1-9.9-15.4-19-14
	c-9.1,1.4-15.4,9.9-14,19c1.4,9.1,9.9,15.4,19,14c7.1-1.1,12.7-6.6,14-13.7h-2.2C-376,285.9-377.3,288.4-379.2,290.4z M-403.8,280.5
	c0-3.7,1.4-7.2,4-9.9l4.9,8.4l1.4-2.4l-4.5-7.6c2.4-1.8,5.4-2.8,8.4-2.7c3,0,6,1,8.4,2.7l-6.6,11.2l-0.2,0.3l0,0l-1.6,2.8l-1.6-2.8
	l1.6-2.8l0.8,1.3l1.4-2.4l-2.2-3.8l-10.2,17.6C-402.3,287.7-403.8,284.2-403.8,280.5z M-397.9,292.1l5.3-9.1l3.1,5.2l3.1-5.2
	l5.3,9.1c-2.4,1.8-5.4,2.8-8.4,2.7C-392.5,294.8-395.5,293.8-397.9,292.1z"/>
<g id="Group_1" transform="translate(40.917 9.711)">
	<path id="Path_2" class="st1" d="M-394.1,275.2c-0.7,0.7-1.5,1.3-2.4,1.7c-0.8,0.4-1.8,0.6-2.7,0.6c-1,0-1.9-0.2-2.8-0.6
		c-0.8-0.4-1.5-0.9-2.1-1.5c-0.6-0.6-1-1.4-1.4-2.2c-0.3-0.8-0.5-1.6-0.5-2.5c0-0.9,0.2-1.9,0.5-2.7c0.4-0.8,0.9-1.5,1.5-2.1
		c0.6-0.6,1.4-1.1,2.2-1.4c0.8-0.3,1.6-0.5,2.5-0.5c0.9,0,1.8,0.2,2.6,0.5c0.9,0.4,1.7,0.9,2.3,1.6l-1.9,1.9c-0.4-0.4-0.9-0.8-1.5-1
		c-0.5-0.3-1.1-0.4-1.6-0.4c-0.5,0-1.1,0.1-1.6,0.3c-1,0.4-1.8,1.2-2.2,2.2c-0.2,0.5-0.3,1.1-0.3,1.6c0,0.5,0.1,1.1,0.3,1.6
		c0.4,1,1.2,1.8,2.2,2.2c0.5,0.2,1,0.3,1.6,0.3c0.6,0,1.2-0.1,1.7-0.4c0.6-0.3,1.1-0.7,1.5-1.1L-394.1,275.2z"/>
	<path id="Path_3" class="st1" d="M-381.7,277.5h-3.2l-3.6-5.1h-1.6v5.1h-2.6v-13.3h5.3c0.5,0,1.1,0.1,1.6,0.3
		c1,0.4,1.8,1.2,2.2,2.2c0.2,0.5,0.3,1,0.3,1.6c0,1.6-0.9,3-2.3,3.7L-381.7,277.5z M-387.9,269.8c0.5,0,1-0.1,1.5-0.4
		c0.6-0.5,0.7-1.3,0.2-1.9c-0.1-0.1-0.1-0.1-0.2-0.2c-0.4-0.3-0.9-0.5-1.5-0.4h-2.2v2.9L-387.9,269.8L-387.9,269.8z"/>
	<path id="Path_4" class="st1" d="M-370.4,264.2l-5,6.9v6.4h-2.6V271c-0.4-0.5-0.8-1.1-1.2-1.7s-0.8-1.1-1.3-1.7
		c-0.4-0.6-0.8-1.2-1.3-1.7c-0.4-0.6-0.8-1.1-1.2-1.7h3.2l3.1,4.2l3-4.2L-370.4,264.2L-370.4,264.2z"/>
	<path id="Path_5" class="st1" d="M-366.8,277.5h-2.6v-13.3h5.3c0.5,0,1.1,0.1,1.6,0.3c1,0.4,1.8,1.2,2.2,2.2c0.4,1,0.4,2.2,0,3.2
		c-0.4,1-1.2,1.8-2.2,2.2c-0.5,0.2-1,0.3-1.6,0.3h-2.7L-366.8,277.5z M-366.8,269.8h2.2c0.5,0,1-0.1,1.5-0.4
		c0.6-0.5,0.7-1.3,0.2-1.9c-0.1-0.1-0.1-0.1-0.2-0.2c-0.4-0.3-0.9-0.5-1.5-0.4h-2.2V269.8z"/>
	<path id="Path_6" class="st1" d="M-349.4,266.9h-3.7v10.6h-2.6v-10.6h-3.7v-2.6h9.9V266.9z"/>
	<path id="Path_7" class="st1" d="M-342.8,277.6c-0.8,0-1.7-0.2-2.5-0.5c-0.8-0.3-1.5-0.7-2.1-1.3c-0.6-0.6-1.1-1.3-1.5-2.1
		c-0.4-0.9-0.6-1.8-0.5-2.7c0-0.9,0.2-1.7,0.5-2.5c0.3-0.8,0.8-1.5,1.4-2.1c0.6-0.6,1.3-1.1,2.1-1.5c2.5-1,5.3-0.5,7.3,1.3
		c0.6,0.6,1.1,1.3,1.5,2.1c0.7,1.6,0.7,3.5,0.1,5.1c-0.3,0.8-0.8,1.5-1.4,2.1c-0.6,0.6-1.3,1.1-2.1,1.5
		C-340.9,277.4-341.8,277.6-342.8,277.6z M-342.8,266.9c-0.5,0-1.1,0.1-1.6,0.3c-1,0.4-1.8,1.2-2.2,2.2c-0.4,1-0.4,2.2,0,3.2
		c0.4,1,1.2,1.8,2.2,2.2c1,0.4,2.2,0.4,3.2,0c0.5-0.2,0.9-0.5,1.3-0.9c0.4-0.4,0.7-0.8,0.9-1.3c0.2-0.5,0.3-1,0.3-1.6
		c0-0.5-0.1-1.1-0.3-1.6c-0.4-1-1.2-1.8-2.2-2.2C-341.7,267-342.2,266.9-342.8,266.9z"/>
	<path id="Path_8" class="st1" d="M-330.5,277.6l-5.9-13.4h2.9l3.6,8.1c0.6-1.4,1.2-2.7,1.8-4c0.6-1.4,1.2-2.7,1.8-4h2.9l-5.9,13.4
		L-330.5,277.6L-330.5,277.6z"/>
	<path id="Path_9" class="st1" d="M-319.3,264l5.9,13.4h-2.9l-1.1-2.4h-5.1c-0.2,0.4-0.3,0.8-0.5,1.2c-0.2,0.4-0.4,0.8-0.5,1.2h-2.9
		l5.9-13.4H-319.3z M-318.4,272.4l-1.4-3.1l-1.4,3.1H-318.4z"/>
	<path id="Path_10" class="st1" d="M-301.4,275.2c-0.7,0.7-1.5,1.3-2.4,1.7c-0.8,0.4-1.8,0.6-2.7,0.6c-1,0-1.9-0.2-2.8-0.6
		c-0.8-0.4-1.5-0.9-2.1-1.5c-0.6-0.6-1-1.4-1.4-2.2c-0.3-0.8-0.5-1.6-0.5-2.5c0-0.9,0.2-1.9,0.5-2.7c0.4-0.8,0.9-1.5,1.5-2.1
		c0.6-0.6,1.4-1.1,2.2-1.4c0.8-0.3,1.6-0.5,2.5-0.5c0.9,0,1.8,0.2,2.6,0.5c0.9,0.4,1.7,0.9,2.3,1.6l-1.9,1.9c-0.4-0.4-0.9-0.8-1.5-1
		c-0.5-0.2-1.1-0.4-1.6-0.4c-0.5,0-1.1,0.1-1.6,0.3c-1,0.4-1.8,1.2-2.2,2.2c-0.2,0.5-0.3,1.1-0.3,1.6c0,0.5,0.1,1.1,0.3,1.6
		c0.4,1,1.2,1.8,2.2,2.2c0.5,0.2,1,0.3,1.6,0.3c0.6,0,1.2-0.1,1.7-0.4c0.6-0.3,1.1-0.7,1.5-1.1L-301.4,275.2z"/>
</g>
</svg>
