<?xml version="1.0" encoding="utf-8"?>
<!-- Generator: Adobe Illustrator 19.0.0, SVG Export Plug-In . SVG Version: 6.00 Build 0)  -->
<svg version="1.1" id="Layer_1" xmlns="http://www.w3.org/2000/svg" xmlns:xlink="http://www.w3.org/1999/xlink" x="0px" y="0px"
	 viewBox="0 0 33.2 33.4" style="enable-background:new 0 0 33.2 33.4;" xml:space="preserve">
<style type="text/css">
	.st0{fill:url(#Path_1_1_);}
</style>
<linearGradient id="Path_1_1_" gradientUnits="userSpaceOnUse" x1="-448.7281" y1="289.9756" x2="-448.0922" y2="288.8986" gradientTransform="matrix(33.1656 0 0 -33.3525 14892.2832 9676.6572)">
	<stop  offset="0" style="stop-color:#17C6A0"/>
	<stop  offset="1" style="stop-color:#40D300"/>
</linearGradient>
<path id="Path_1" class="st0" d="M27.2,26.8l-5.8-9.9L27.2,7c1.9,2,3.2,4.5,3.8,7.2h2.2c-1.4-9.1-9.9-15.4-19-14s-15.4,9.9-14,19
	s9.9,15.4,19,14c7.1-1.1,12.7-6.6,14-13.7h-2.2C30.4,22.2,29.1,24.8,27.2,26.8z M2.6,16.9c0-3.7,1.4-7.2,4-9.9l4.9,8.4l1.4-2.4
	L8.5,5.4c2.4-1.8,5.4-2.8,8.4-2.7c3,0,6,1,8.4,2.7l-6.6,11.2l-0.2,0.3l0,0l-1.6,2.8l-1.6-2.8l1.6-2.8l0.8,1.3l1.4-2.4l-2.2-3.8
	L6.6,26.8C4,24.1,2.6,20.6,2.6,16.9z M8.5,28.4l5.3-9.1l3.1,5.2l3.1-5.2l5.3,9.1c-2.4,1.8-5.4,2.8-8.4,2.7
	C13.8,31.2,10.9,30.2,8.5,28.4z"/>
</svg>
