<svg xmlns="http://www.w3.org/2000/svg" viewBox="0 0 17.741 18.973">
  <defs>
    <style>
      .cls-1 {
        fill: none;
        stroke: #b9c0c7;
        stroke-miterlimit: 10;
        stroke-width: 1.5px;
      }
    </style>
  </defs>
  <g id="Group_21" data-name="Group 21" transform="translate(0.279 0.25)">
    <path id="Path_24" data-name="Path 24" class="cls-1" d="M15.726,13.172a9.726,9.726,0,0,1-1.664-5.44V6.26A5.514,5.514,0,0,0,8.622.5a5.476,5.476,0,0,0-5.44,5.76V7.732a9.726,9.726,0,0,1-1.664,5.44L.558,14.58a.449.449,0,0,0,.384.7h15.3a.459.459,0,0,0,.384-.7Z" transform="translate(0)"/>
    <path id="Path_25" data-name="Path 25" class="cls-1" d="M14.32,23.8a2.56,2.56,0,0,1-5.12,0" transform="translate(-3.138 -8.388)"/>
  </g>
</svg>
