<?xml version="1.0" standalone="no"?>
<!DOCTYPE svg PUBLIC "-//W3C//DTD SVG 20010904//EN"
 "http://www.w3.org/TR/2001/REC-SVG-20010904/DTD/svg10.dtd">
<svg version="1.0" xmlns="http://www.w3.org/2000/svg"
 width="700.000000pt" height="700.000000pt" viewBox="0 0 700.000000 700.000000"
 preserveAspectRatio="xMidYMid meet">
<metadata>
Created by potrace 1.11, written by Peter Selinger 2001-2013
</metadata>
<g transform="translate(0.000000,700.000000) scale(0.100000,-0.100000)"
fill="#000000" stroke="none">
<path d="M3338 6995 c-2 -2 -44 -6 -93 -9 -50 -4 -99 -8 -110 -10 -11 -2 -47
-7 -80 -10 -210 -24 -636 -131 -780 -196 -11 -5 -44 -19 -74 -30 -293 -113
-618 -304 -906 -534 -90 -72 -364 -337 -441 -426 -247 -288 -485 -678 -600
-982 -9 -24 -22 -56 -29 -73 -63 -143 -155 -499 -185 -710 -6 -44 -13 -93 -15
-110 -20 -137 -26 -514 -12 -680 8 -88 24 -226 32 -265 3 -14 10 -52 15 -85
114 -652 447 -1298 924 -1793 129 -133 311 -295 406 -362 19 -13 37 -27 40
-30 14 -18 211 -146 325 -212 197 -115 509 -257 620 -284 17 -4 35 -10 40 -14
14 -10 250 -75 360 -99 89 -20 192 -38 270 -47 22 -3 54 -7 70 -9 176 -25 651
-25 806 0 13 2 46 6 73 10 214 27 634 133 771 195 11 5 61 25 110 45 118 48
336 158 453 229 91 55 257 164 290 191 10 7 64 51 122 96 93 74 382 352 450
434 261 313 418 565 588 945 55 123 159 444 186 575 13 65 17 81 27 119 6 21
8 40 5 43 -4 4 -348 7 -437 4 -23 -1 -27 -7 -43 -78 -20 -85 -115 -381 -140
-434 -8 -19 -25 -59 -36 -89 -30 -79 -169 -344 -231 -442 -53 -83 -227 -320
-270 -369 -13 -14 -41 -45 -62 -69 -22 -23 -43 -38 -47 -34 -7 7 -614 1033
-682 1154 -11 19 -78 132 -148 250 -70 118 -148 251 -174 295 -26 44 -51 87
-57 95 -5 8 -42 72 -83 142 l-74 126 414 702 c228 386 414 706 414 710 0 5 4
10 8 12 4 2 25 32 45 68 77 135 314 537 332 563 11 16 18 11 76 -54 333 -373
581 -838 705 -1319 15 -58 29 -107 31 -110 3 -4 463 -8 463 -5 0 1 -4 26 -10
56 -5 30 -12 70 -15 89 -12 69 -84 337 -120 445 -244 725 -746 1375 -1390
1797 -358 234 -700 384 -1115 488 -65 16 -108 25 -275 55 -39 7 -164 23 -240
31 -61 6 -492 13 -497 9z m417 -570 c55 -3 111 -7 125 -10 14 -2 50 -6 80 -10
75 -8 332 -60 400 -80 376 -113 673 -251 968 -451 6 -4 -50 -109 -59 -112 -5
-2 -9 -7 -9 -12 0 -4 -100 -176 -222 -381 -122 -206 -255 -432 -297 -502 -42
-70 -83 -140 -92 -155 -9 -15 -60 -101 -114 -192 -54 -91 -186 -313 -293 -495
-107 -181 -204 -346 -216 -365 -67 -105 -148 -243 -393 -668 -73 -125 -70
-124 -116 -42 -13 25 -84 148 -157 274 -114 200 -130 233 -121 252 14 33 311
547 320 557 8 8 25 -18 123 -180 23 -40 45 -73 48 -73 3 0 26 35 51 78 25 42
89 151 142 241 54 90 97 170 97 177 0 7 -52 102 -116 211 -64 109 -125 214
-136 233 -33 57 -200 345 -203 348 -1 2 -27 -39 -57 -90 -30 -51 -333 -565
-673 -1143 -340 -577 -802 -1363 -1027 -1745 -225 -382 -411 -697 -414 -700
-14 -13 -240 263 -348 424 -191 284 -366 690 -420 967 -2 13 -9 44 -15 69 -5
25 -12 61 -16 80 -3 19 -7 46 -10 60 -36 190 -42 667 -11 860 3 14 7 43 10 65
43 318 181 716 350 1005 27 47 54 94 60 105 24 43 138 204 200 281 66 82 185
217 195 221 3 2 15 -14 27 -35 11 -20 81 -140 156 -267 122 -207 307 -522 661
-1125 66 -113 128 -220 139 -238 35 -63 51 -83 59 -75 7 7 252 423 278 471 8
15 -9 51 -86 183 -53 90 -104 178 -113 194 -16 30 -72 126 -266 457 -57 97
-104 179 -104 183 0 3 -5 11 -10 18 -6 7 -54 86 -106 177 -53 91 -127 218
-164 282 l-69 117 135 90 c148 99 416 235 590 300 62 23 120 44 130 46 11 3
60 16 109 30 113 32 108 31 240 55 158 28 169 29 285 36 58 4 106 7 107 8 4 4
269 -3 368 -9z m-602 -3875 c28 -50 399 -665 406 -673 4 -4 153 236 331 533
178 297 327 537 331 533 7 -8 248 -415 297 -503 14 -25 40 -69 59 -98 18 -29
33 -54 33 -56 0 -2 41 -72 90 -156 50 -84 90 -154 90 -156 0 -2 15 -28 34 -57
28 -44 239 -403 304 -517 11 -19 61 -105 111 -190 50 -85 91 -157 91 -160 0
-6 -130 -96 -205 -142 -108 -66 -229 -129 -380 -198 -214 -98 -573 -191 -840
-217 -160 -16 -725 -7 -795 12 -8 2 -33 6 -55 9 -84 10 -262 49 -355 78 -291
90 -551 215 -801 384 l-106 72 104 178 c58 99 115 197 127 219 13 22 52 90 88
150 136 230 597 1015 631 1075 44 79 150 256 159 268 8 9 41 -38 124 -175 62
-104 119 -199 127 -213z"/>
</g>
</svg>
